<svg width="150" height="64" viewBox="0 0 150 64" fill="none" xmlns="http://www.w3.org/2000/svg">
<g clip-path="url(#clip0_0_1)">
<path d="M32 64C49.6731 64 64 49.6731 64 32C64 14.3269 49.6731 0 32 0C14.3269 0 0 14.3269 0 32C0 49.6731 14.3269 64 32 64Z" fill="#FFD15D"/>
<path d="M54.6274 54.6274C62.9194 46.3356 65.7071 34.6258 62.9953 24.0334L56.8674 17.9055L54.575 27.5993L39.9605 12.9849L39.4731 13.7901L35.3512 9.66825L30.2402 15.2279L17.5991 25.8376L20.9018 29.1404L19.7143 30.8535L25.4286 36.5679L24.9692 37.0435L31.2518 43.326L47.8066 59.8309C50.2475 58.4421 52.5455 56.7091 54.6274 54.6274Z" fill="#F9B54C"/>
<path d="M35.136 39.9422V36.4645H28.864V39.9422C28.864 40.2197 28.639 40.4448 28.3615 40.4448H24.0395V52.4461H39.9609V40.4448H35.6387C35.361 40.4448 35.136 40.2197 35.136 39.9422Z" fill="#FED8B2"/>
<path d="M39.9607 40.4448H35.6387C35.3612 40.4448 35.1362 40.2197 35.1362 39.9422V36.4645H31.8567V52.4461H39.961V40.4448H39.9607Z" fill="#EABE96"/>
<path d="M21.5746 31.6836C22.9589 31.6836 24.0811 30.5614 24.0811 29.1771C24.0811 27.7928 22.9589 26.6706 21.5746 26.6706C20.1903 26.6706 19.0681 27.7928 19.0681 29.1771C19.0681 30.5614 20.1903 31.6836 21.5746 31.6836Z" fill="#FED8B2"/>
<path d="M41.8909 31.6836C43.2752 31.6836 44.3974 30.5614 44.3974 29.1771C44.3974 27.7928 43.2752 26.6706 41.8909 26.6706C40.5066 26.6706 39.3844 27.7928 39.3844 29.1771C39.3844 30.5614 40.5066 31.6836 41.8909 31.6836Z" fill="#EABE96"/>
<path d="M32.0153 39.6157H31.4505C26.226 39.6157 21.9907 35.3805 21.9907 30.156V21.519C21.9907 16.2945 26.226 12.0592 31.4505 12.0592H32.0153C37.2398 12.0592 41.475 16.2945 41.475 21.519V30.156C41.475 35.3806 37.2396 39.6157 32.0153 39.6157Z" fill="#F4E3C3"/>
<path d="M32.0153 12.0594H31.8564V39.6157H32.0153C37.2398 39.6157 41.475 35.3805 41.475 30.156V21.519C41.475 16.2946 37.2396 12.0594 32.0153 12.0594Z" fill="#FED8B2"/>
<path d="M27.1408 29.0394C27.6788 29.0394 28.115 28.6032 28.115 28.0651C28.115 27.5271 27.6788 27.0909 27.1408 27.0909C26.6027 27.0909 26.1665 27.5271 26.1665 28.0651C26.1665 28.6032 26.6027 29.0394 27.1408 29.0394Z" fill="#59595B"/>
<path d="M36.3249 29.0394C36.8629 29.0394 37.2991 28.6032 37.2991 28.0651C37.2991 27.5271 36.8629 27.0909 36.3249 27.0909C35.7868 27.0909 35.3506 27.5271 35.3506 28.0651C35.3506 28.6032 35.7868 29.0394 36.3249 29.0394Z" fill="#272525"/>
<path d="M40.6443 40.4447H37.3073C37.3073 43.3759 34.9313 45.9347 32.0003 45.9347C29.0693 45.9347 26.6933 43.3756 26.6933 40.4447H23.3563C19.3371 40.4447 16.079 43.7029 16.079 47.722V59.7641C20.7675 62.4589 26.2038 64 32 64C37.7963 64 43.2325 62.4589 47.9215 59.7641V47.722C47.9215 43.703 44.6634 40.4447 40.6443 40.4447Z" fill="#31BAFD"/>
<path d="M40.6442 40.4447H37.3072C37.3072 43.3759 34.9312 45.9347 32.0002 45.9347C31.9522 45.9347 31.9046 45.9321 31.8567 45.9309V63.9976C31.9047 63.9979 31.9522 64 32.0002 64C37.7965 64 43.2327 62.4589 47.9217 59.7641V47.722C47.9215 43.703 44.6634 40.4447 40.6442 40.4447Z" fill="#2B9ED8"/>
<path d="M32 48.6954C36.4991 48.6954 40.1745 44.901 40.4197 40.4447H37.307C37.307 43.3759 34.931 45.9347 32 45.9347C29.069 45.9347 26.693 43.3759 26.693 40.4447H23.5802C23.8256 44.901 27.501 48.6954 32 48.6954Z" fill="#324A5E"/>
<path d="M37.307 40.4447C37.307 43.3759 34.931 45.9347 32 45.9347C31.952 45.9347 31.9044 45.9321 31.8565 45.9309V48.6915C31.9045 48.6924 31.952 48.6954 32 48.6954C36.4991 48.6954 40.1745 44.901 40.4197 40.4447H37.307Z" fill="#2B3B4E"/>
<path d="M32 37.7972C28.7325 37.7972 26.0741 35.1387 26.0741 31.8714C26.0741 31.1584 26.654 30.5785 27.367 30.5785C28.08 30.5785 28.6599 31.1584 28.6599 31.8714C28.6599 33.7131 30.1581 35.2115 32 35.2115C33.8419 35.2115 35.3401 33.7132 35.3401 31.8714C35.3401 31.1584 35.92 30.5785 36.633 30.5785C37.346 30.5785 37.9259 31.1584 37.9259 31.8714C37.9259 35.1387 35.2675 37.7972 32 37.7972Z" fill="#FD8469"/>
<path d="M36.633 31.3326C36.9306 31.3326 37.1717 31.5737 37.1717 31.8714C37.1717 34.7229 34.8516 37.0431 32 37.0431C29.1484 37.0431 26.8283 34.723 26.8283 31.8714C26.8283 31.5737 27.0694 31.3326 27.367 31.3326C27.6646 31.3326 27.9058 31.5737 27.9058 31.8714C27.9058 34.129 29.7424 35.9656 32 35.9656C34.2576 35.9656 36.0942 34.129 36.0942 31.8714C36.0942 31.5737 36.3354 31.3326 36.633 31.3326ZM36.633 29.8242C35.5042 29.8242 34.5859 30.7426 34.5859 31.8714C34.5859 33.2972 33.4259 34.4572 32 34.4572C30.5741 34.4572 29.4141 33.2972 29.4141 31.8714C29.4141 30.7426 28.4958 29.8242 27.367 29.8242C26.2383 29.8242 25.3199 30.7426 25.3199 31.8714C25.3199 35.5549 28.3166 38.5515 32 38.5515C35.6834 38.5515 38.6801 35.5549 38.6801 31.8714C38.6801 30.7426 37.7617 29.8242 36.633 29.8242Z" fill="white"/>
<path d="M36.633 30.5784C35.92 30.5784 35.3401 31.1583 35.3401 31.8713C35.3401 33.713 33.8419 35.2114 32 35.2114C31.9515 35.2114 31.9044 35.2063 31.8565 35.204V37.7935C31.9044 37.7946 31.952 37.7971 32 37.7971C35.2675 37.7971 37.9259 35.1386 37.9259 31.8713C37.9259 31.1585 37.346 30.5784 36.633 30.5784Z" fill="#FC6F58"/>
<path d="M36.633 29.8242C35.5042 29.8242 34.5859 30.7426 34.5859 31.8714C34.5859 33.2972 33.4259 34.4572 32 34.4572C31.9515 34.4572 31.9044 34.4527 31.8565 34.4499V35.9582C31.9045 35.96 31.9515 35.9656 32 35.9656C34.2576 35.9656 36.0942 34.129 36.0942 31.8714C36.0942 31.5737 36.3354 31.3326 36.633 31.3326C36.9306 31.3326 37.1717 31.5737 37.1717 31.8714C37.1717 34.7229 34.8516 37.0431 32 37.0431C31.952 37.0431 31.9044 37.0408 31.8565 37.0395V38.5479C31.9044 38.549 31.952 38.5515 32 38.5515C35.6834 38.5515 38.6801 35.5549 38.6801 31.8714C38.6801 30.7426 37.7617 29.8242 36.633 29.8242Z" fill="#E6F3FF"/>
<path d="M46.4616 22.734C46.7189 22.2899 46.8685 21.7757 46.8685 21.2256C46.8685 19.5595 45.5179 18.2087 43.8516 18.2087C43.8516 16.676 42.708 15.4115 41.2279 15.2186C40.6635 13.0626 38.7026 11.4719 36.3698 11.4719C36.3311 11.4719 36.2939 11.4766 36.2555 11.4777C35.8131 9.55737 34.0965 8.12387 32.0416 8.12387C29.9644 8.12387 28.2305 9.58812 27.8118 11.5402C27.5531 11.4991 27.2899 11.4718 27.0196 11.4718C24.629 11.4718 22.6299 13.1426 22.1231 15.3799C20.9711 15.8049 20.1481 16.9092 20.1481 18.2087C18.482 18.2087 17.1313 19.5594 17.1313 21.2256C17.1313 21.7757 17.2808 22.2899 17.5381 22.734C17.2434 23.2427 17.0899 23.8435 17.141 24.485C17.2669 26.0674 18.6446 27.2593 20.232 27.2593H20.4835C23.6308 27.2593 26.1819 24.7079 26.1819 21.5609V21.445C26.4545 21.4906 26.7341 21.5159 27.0199 21.5159C27.3309 21.5159 27.6336 21.4837 27.929 21.4296C28.4943 23.1619 30.1208 24.4147 32.042 24.4147C33.9353 24.4147 35.5405 23.197 36.1279 21.5035C36.2086 21.5074 36.2883 21.5158 36.3699 21.5158C36.8735 21.5158 37.3596 21.4408 37.8181 21.3029V21.5609C37.8181 24.7081 40.3695 27.2593 43.5165 27.2593H43.768C45.3553 27.2593 46.7334 26.0676 46.859 24.485C46.9099 23.8435 46.7564 23.2427 46.4616 22.734Z" fill="#FC6F58"/>
<path d="M46.4616 22.734C46.7189 22.2899 46.8685 21.7757 46.8685 21.2256C46.8685 19.5595 45.5179 18.2087 43.8516 18.2087C43.8516 16.676 42.708 15.4115 41.2279 15.2186C40.6635 13.0626 38.7026 11.4719 36.3698 11.4719C36.3311 11.4719 36.2939 11.4766 36.2555 11.4777C35.8131 9.55737 34.0965 8.12387 32.0416 8.12387C31.9791 8.12387 31.9181 8.1295 31.8563 8.132V24.4071C31.9181 24.4098 31.9791 24.4146 32.0416 24.4146C33.9349 24.4146 35.5401 23.1969 36.1275 21.5034C36.2083 21.5072 36.2879 21.5156 36.3695 21.5156C36.8731 21.5156 37.3593 21.4406 37.8178 21.3027V21.5607C37.8178 24.708 40.3691 27.2591 43.5161 27.2591H43.7676C45.3549 27.2591 46.733 26.0675 46.8586 24.4849C46.9099 23.8435 46.7564 23.2427 46.4616 22.734Z" fill="#F1543F"/>
<path d="M32 32.2155C33.1901 32.2155 34.1549 31.2507 34.1549 30.0606C34.1549 28.8705 33.1901 27.9057 32 27.9057C30.8099 27.9057 29.8451 28.8705 29.8451 30.0606C29.8451 31.2507 30.8099 32.2155 32 32.2155Z" fill="#FC6F58"/>
<path d="M32 27.9057C31.9515 27.9057 31.9041 27.9099 31.8565 27.9131V32.2085C31.9041 32.2117 31.9515 32.2159 32 32.2159C33.1901 32.2159 34.1549 31.2511 34.1549 30.061C34.1549 28.8706 33.1901 27.9057 32 27.9057Z" fill="#F1543F"/>
<path d="M34.6936 49.8855L35.426 51.3698L37.064 51.6077L35.8788 52.7629L36.1585 54.3941L34.6936 53.624L33.2287 54.3941L33.5084 52.7629L32.3233 51.6077L33.9611 51.3698L34.6936 49.8855Z" fill="#84DBFF"/>
<path d="M38.2131 56.2024L38.9459 57.6864L40.5835 57.9245L39.3984 59.0797L39.6782 60.711L38.2131 59.9409L36.7482 60.711L37.028 59.0797L35.8427 57.9245L37.4808 57.6864L38.2131 56.2024Z" fill="#84DBFF"/>
<path d="M22.5185 46.9004L23.251 48.3844L24.8889 48.6225L23.7038 49.7777L23.9834 51.409L22.5185 50.6389L21.0536 51.409L21.3334 49.7777L20.1481 48.6225L21.7861 48.3844L22.5185 46.9004Z" fill="#84DBFF"/>
<path d="M22.5185 57.567L23.251 59.0511L24.8889 59.2892L23.7038 60.4445L23.9834 62.0757L22.5185 61.3055L21.0536 62.0757L21.3334 60.4445L20.1481 59.2892L21.7861 59.0511L22.5185 57.567Z" fill="#84DBFF"/>
<path d="M43.8519 43.3448L44.5843 44.8289L46.2223 45.067L45.037 46.2223L45.3167 47.8535L43.8519 47.0834L42.387 47.8535L42.6666 46.2223L41.4815 45.067L43.1194 44.8289L43.8519 43.3448Z" fill="#84DBFF"/>
<path d="M53.9669 30.2654H53.3204V41.4922H53.9669V30.2654Z" fill="#324A5E"/>
<path d="M53.6436 31.332C56.8042 31.332 59.3664 28.0402 59.3664 23.9795C59.3664 19.9188 56.8042 16.627 53.6436 16.627C50.483 16.627 47.9209 19.9188 47.9209 23.9795C47.9209 28.0402 50.483 31.332 53.6436 31.332Z" fill="#C1321F"/>
</g>
<path d="M82.1472 12.4545V14.017H75.1301V27H73.3688V12.4545H82.1472ZM86.3713 27.2557C85.68 27.2557 85.0526 27.1255 84.4892 26.8651C83.9257 26.5999 83.4783 26.2188 83.1468 25.7216C82.8154 25.2197 82.6497 24.6136 82.6497 23.9034C82.6497 23.2784 82.7728 22.7718 83.019 22.3835C83.2652 21.9905 83.5943 21.6828 84.0062 21.4602C84.4181 21.2377 84.8727 21.072 85.3699 20.9631C85.8717 20.8494 86.376 20.7595 86.8826 20.6932C87.5455 20.608 88.0829 20.544 88.4949 20.5014C88.9115 20.4541 89.2145 20.3759 89.4039 20.267C89.5981 20.1581 89.6951 19.9687 89.6951 19.6989V19.642C89.6951 18.9413 89.5034 18.3968 89.1199 18.0085C88.7411 17.6203 88.1658 17.4261 87.394 17.4261C86.5938 17.4261 85.9664 17.6013 85.5119 17.9517C85.0574 18.3021 84.7377 18.6761 84.5531 19.0739L82.9622 18.5057C83.2463 17.8428 83.6251 17.3267 84.0985 16.9574C84.5768 16.5833 85.0976 16.3229 85.661 16.1761C86.2292 16.0246 86.7879 15.9489 87.3372 15.9489C87.6876 15.9489 88.09 15.9915 88.5446 16.0767C89.0038 16.1572 89.4466 16.3253 89.8727 16.581C90.3036 16.8366 90.661 17.2225 90.9451 17.7386C91.2292 18.2547 91.3713 18.946 91.3713 19.8125V27H89.6951V25.5227H89.6099C89.4963 25.7595 89.3069 26.0128 89.0417 26.2827C88.7766 26.5526 88.4238 26.7822 87.9835 26.9716C87.5431 27.161 87.0057 27.2557 86.3713 27.2557ZM86.627 25.75C87.2898 25.75 87.8485 25.6198 88.3031 25.3594C88.7624 25.099 89.108 24.7628 89.34 24.3509C89.5768 23.9389 89.6951 23.5057 89.6951 23.0511V21.517C89.6241 21.6023 89.4679 21.6804 89.2264 21.7514C88.9896 21.8177 88.715 21.8769 88.4025 21.929C88.0948 21.9763 87.7941 22.0189 87.5005 22.0568C87.2117 22.09 86.9773 22.1184 86.7974 22.142C86.3618 22.1989 85.9546 22.2912 85.5758 22.419C85.2018 22.5421 84.8987 22.7292 84.6667 22.9801C84.4395 23.2263 84.3258 23.5625 84.3258 23.9886C84.3258 24.571 84.5413 25.0114 84.9721 25.3097C85.4077 25.6032 85.9593 25.75 86.627 25.75ZM93.4647 27V25.4375H93.8624C94.1891 25.4375 94.4614 25.3736 94.6792 25.2457C94.897 25.1132 95.0721 24.8835 95.2047 24.5568C95.342 24.2254 95.4462 23.7661 95.5172 23.179C95.593 22.5871 95.6474 21.8343 95.6806 20.9205L95.8794 16.0909H103.152V27H101.476V17.6534H97.4703L97.2999 21.5455C97.262 22.4403 97.1815 23.2287 97.0584 23.9105C96.94 24.5876 96.7578 25.1558 96.5115 25.6151C96.2701 26.0743 95.9481 26.42 95.5456 26.652C95.1432 26.884 94.6389 27 94.0328 27H93.4647ZM110.801 27.2273C109.75 27.2273 108.843 26.9953 108.081 26.5312C107.324 26.0625 106.739 25.4091 106.327 24.571C105.92 23.7282 105.716 22.7481 105.716 21.6307C105.716 20.5133 105.92 19.5284 106.327 18.6761C106.739 17.8191 107.312 17.1515 108.046 16.6733C108.784 16.1903 109.646 15.9489 110.631 15.9489C111.199 15.9489 111.76 16.0436 112.314 16.233C112.868 16.4223 113.372 16.7301 113.827 17.1562C114.281 17.5777 114.644 18.1364 114.914 18.8324C115.183 19.5284 115.318 20.3854 115.318 21.4034V22.1136H106.909V20.6648H113.614C113.614 20.0492 113.491 19.5 113.244 19.017C113.003 18.5341 112.657 18.1529 112.208 17.8736C111.762 17.5942 111.237 17.4545 110.631 17.4545C109.963 17.4545 109.386 17.6203 108.898 17.9517C108.415 18.2784 108.043 18.7045 107.783 19.2301C107.522 19.7557 107.392 20.3191 107.392 20.9205V21.8864C107.392 22.7102 107.534 23.4086 107.818 23.9815C108.107 24.5497 108.507 24.983 109.019 25.2812C109.53 25.5748 110.124 25.7216 110.801 25.7216C111.242 25.7216 111.639 25.66 111.994 25.5369C112.354 25.4091 112.664 25.2197 112.925 24.9688C113.185 24.7131 113.387 24.3958 113.529 24.017L115.148 24.4716C114.977 25.0208 114.691 25.5038 114.289 25.9205C113.886 26.3324 113.389 26.6544 112.797 26.8864C112.205 27.1136 111.54 27.2273 110.801 27.2273ZM117.868 31.0909V16.0909H119.487V17.8239H119.686C119.809 17.6345 119.98 17.393 120.198 17.0994C120.42 16.8011 120.737 16.536 121.149 16.304C121.566 16.0672 122.129 15.9489 122.84 15.9489C123.758 15.9489 124.568 16.1785 125.269 16.6378C125.969 17.0971 126.516 17.7481 126.909 18.5909C127.302 19.4337 127.499 20.428 127.499 21.5739C127.499 22.7292 127.302 23.7306 126.909 24.5781C126.516 25.4209 125.972 26.0743 125.276 26.5384C124.58 26.9976 123.777 27.2273 122.868 27.2273C122.167 27.2273 121.606 27.1113 121.185 26.8793C120.763 26.6425 120.439 26.375 120.212 26.0767C119.985 25.7737 119.809 25.5227 119.686 25.3239H119.544V31.0909H117.868ZM119.516 21.5455C119.516 22.3693 119.637 23.0961 119.878 23.7259C120.119 24.3509 120.472 24.8409 120.936 25.196C121.4 25.5464 121.968 25.7216 122.641 25.7216C123.342 25.7216 123.926 25.5369 124.395 25.1676C124.869 24.7936 125.224 24.2917 125.46 23.6619C125.702 23.0275 125.823 22.322 125.823 21.5455C125.823 20.7784 125.704 20.0871 125.468 19.4716C125.235 18.8513 124.883 18.3613 124.409 18.0014C123.941 17.6368 123.351 17.4545 122.641 17.4545C121.959 17.4545 121.386 17.6274 120.922 17.973C120.458 18.3139 120.108 18.7921 119.871 19.4077C119.634 20.0185 119.516 20.7311 119.516 21.5455ZM134.629 27.2273C133.578 27.2273 132.672 26.9953 131.909 26.5312C131.152 26.0625 130.567 25.4091 130.155 24.571C129.748 23.7282 129.544 22.7481 129.544 21.6307C129.544 20.5133 129.748 19.5284 130.155 18.6761C130.567 17.8191 131.14 17.1515 131.874 16.6733C132.612 16.1903 133.474 15.9489 134.459 15.9489C135.027 15.9489 135.588 16.0436 136.142 16.233C136.696 16.4223 137.2 16.7301 137.655 17.1562C138.11 17.5777 138.472 18.1364 138.742 18.8324C139.012 19.5284 139.146 20.3854 139.146 21.4034V22.1136H130.737V20.6648H137.442C137.442 20.0492 137.319 19.5 137.073 19.017C136.831 18.5341 136.485 18.1529 136.036 17.8736C135.591 17.5942 135.065 17.4545 134.459 17.4545C133.791 17.4545 133.214 17.6203 132.726 17.9517C132.243 18.2784 131.871 18.7045 131.611 19.2301C131.351 19.7557 131.22 20.3191 131.22 20.9205V21.8864C131.22 22.7102 131.362 23.4086 131.646 23.9815C131.935 24.5497 132.335 24.983 132.847 25.2812C133.358 25.5748 133.952 25.7216 134.629 25.7216C135.07 25.7216 135.468 25.66 135.823 25.5369C136.182 25.4091 136.493 25.2197 136.753 24.9688C137.013 24.7131 137.215 24.3958 137.357 24.017L138.976 24.4716C138.806 25.0208 138.519 25.5038 138.117 25.9205C137.714 26.3324 137.217 26.6544 136.625 26.8864C136.033 27.1136 135.368 27.2273 134.629 27.2273ZM148.259 27V17.625H145.361C144.708 17.625 144.194 17.7765 143.82 18.0795C143.446 18.3826 143.259 18.7992 143.259 19.3295C143.259 19.8504 143.427 20.2599 143.763 20.5582C144.104 20.8565 144.57 21.0057 145.162 21.0057H148.685V22.5682H145.162C144.423 22.5682 143.787 22.438 143.252 22.1776C142.717 21.9171 142.305 21.5455 142.016 21.0625C141.727 20.5748 141.583 19.9972 141.583 19.3295C141.583 18.6572 141.734 18.0795 142.037 17.5966C142.34 17.1136 142.773 16.742 143.337 16.4815C143.905 16.2211 144.58 16.0909 145.361 16.0909H149.85V27H148.259ZM140.986 27L144.083 21.5739H145.901L142.804 27H140.986ZM78.9716 51V40.0909H80.6477V44.8352H81.7557L85.6761 40.0909H87.8352L83.4318 45.3466L87.892 51H85.733L82.1534 46.3977H80.6477V51H78.9716ZM88.7479 51V49.4375H89.1456C89.4723 49.4375 89.7446 49.3736 89.9624 49.2457C90.1802 49.1132 90.3554 48.8835 90.4879 48.5568C90.6252 48.2254 90.7294 47.7661 90.8004 47.179C90.8762 46.5871 90.9306 45.8343 90.9638 44.9205L91.1626 40.0909H98.4354V51H96.7592V41.6534H92.7536L92.5831 45.5455C92.5452 46.4403 92.4647 47.2287 92.3416 47.9105C92.2232 48.5876 92.041 49.1558 91.7947 49.6151C91.5533 50.0743 91.2313 50.42 90.8288 50.652C90.4264 50.884 89.9221 51 89.3161 51H88.7479ZM105.942 51.2273C104.958 51.2273 104.094 50.9929 103.35 50.5241C102.612 50.0554 102.034 49.3996 101.617 48.5568C101.205 47.714 100.999 46.7292 100.999 45.6023C100.999 44.4659 101.205 43.474 101.617 42.6264C102.034 41.7789 102.612 41.1207 103.35 40.652C104.094 40.1832 104.958 39.9489 105.942 39.9489C106.927 39.9489 107.789 40.1832 108.528 40.652C109.271 41.1207 109.849 41.7789 110.261 42.6264C110.677 43.474 110.886 44.4659 110.886 45.6023C110.886 46.7292 110.677 47.714 110.261 48.5568C109.849 49.3996 109.271 50.0554 108.528 50.5241C107.789 50.9929 106.927 51.2273 105.942 51.2273ZM105.942 49.7216C106.691 49.7216 107.306 49.5298 107.789 49.1463C108.272 48.7628 108.629 48.2585 108.862 47.6335C109.094 47.0085 109.21 46.3314 109.21 45.6023C109.21 44.8731 109.094 44.1937 108.862 43.5639C108.629 42.9342 108.272 42.4252 107.789 42.0369C107.306 41.6487 106.691 41.4545 105.942 41.4545C105.194 41.4545 104.579 41.6487 104.096 42.0369C103.613 42.4252 103.255 42.9342 103.023 43.5639C102.791 44.1937 102.675 44.8731 102.675 45.6023C102.675 46.3314 102.791 47.0085 103.023 47.6335C103.255 48.2585 103.613 48.7628 104.096 49.1463C104.579 49.5298 105.194 49.7216 105.942 49.7216ZM114.133 55.0909C113.849 55.0909 113.596 55.0672 113.373 55.0199C113.151 54.9773 112.997 54.9347 112.912 54.892L113.338 53.4148C113.745 53.5189 114.105 53.5568 114.417 53.5284C114.73 53.5 115.007 53.3603 115.248 53.1094C115.494 52.8632 115.719 52.4631 115.923 51.9091L116.235 51.0568L112.201 40.0909H114.02L117.031 48.7841H117.145L120.156 40.0909H121.974L117.343 52.5909C117.135 53.1544 116.877 53.6207 116.569 53.9901C116.261 54.3641 115.904 54.6411 115.497 54.821C115.094 55.0009 114.64 55.0909 114.133 55.0909ZM131.488 44.7784V46.3409H125.465V44.7784H131.488ZM125.863 40.0909V51H124.186V40.0909H125.863ZM132.766 40.0909V51H131.09V40.0909H132.766ZM139.037 51.2557C138.346 51.2557 137.719 51.1255 137.155 50.8651C136.592 50.5999 136.144 50.2188 135.813 49.7216C135.481 49.2197 135.316 48.6136 135.316 47.9034C135.316 47.2784 135.439 46.7718 135.685 46.3835C135.931 45.9905 136.26 45.6828 136.672 45.4602C137.084 45.2377 137.539 45.072 138.036 44.9631C138.538 44.8494 139.042 44.7595 139.549 44.6932C140.212 44.608 140.749 44.544 141.161 44.5014C141.578 44.4541 141.881 44.3759 142.07 44.267C142.264 44.1581 142.361 43.9687 142.361 43.6989V43.642C142.361 42.9413 142.169 42.3968 141.786 42.0085C141.407 41.6203 140.832 41.4261 140.06 41.4261C139.26 41.4261 138.632 41.6013 138.178 41.9517C137.723 42.3021 137.404 42.6761 137.219 43.0739L135.628 42.5057C135.912 41.8428 136.291 41.3267 136.765 40.9574C137.243 40.5833 137.764 40.3229 138.327 40.1761C138.895 40.0246 139.454 39.9489 140.003 39.9489C140.354 39.9489 140.756 39.9915 141.211 40.0767C141.67 40.1572 142.113 40.3253 142.539 40.581C142.97 40.8366 143.327 41.2225 143.611 41.7386C143.895 42.2547 144.037 42.946 144.037 43.8125V51H142.361V49.5227H142.276C142.162 49.7595 141.973 50.0128 141.708 50.2827C141.443 50.5526 141.09 50.7822 140.65 50.9716C140.209 51.161 139.672 51.2557 139.037 51.2557ZM139.293 49.75C139.956 49.75 140.515 49.6198 140.969 49.3594C141.428 49.099 141.774 48.7628 142.006 48.3509C142.243 47.9389 142.361 47.5057 142.361 47.0511V45.517C142.29 45.6023 142.134 45.6804 141.892 45.7514C141.656 45.8177 141.381 45.8769 141.069 45.929C140.761 45.9763 140.46 46.0189 140.167 46.0568C139.878 46.09 139.643 46.1184 139.463 46.142C139.028 46.1989 138.621 46.2912 138.242 46.419C137.868 46.5421 137.565 46.7292 137.333 46.9801C137.105 47.2263 136.992 47.5625 136.992 47.9886C136.992 48.571 137.207 49.0114 137.638 49.3097C138.074 49.6032 138.625 49.75 139.293 49.75Z" fill="white"/>
<defs>
<clipPath id="clip0_0_1">
<rect width="64" height="64" fill="white"/>
</clipPath>
</defs>
</svg>
