<svg width="64" height="64" viewBox="0 0 64 64" fill="none" xmlns="http://www.w3.org/2000/svg">
<g clip-path="url(#clip0_0_1)">
<path d="M32 64C49.6731 64 64 49.6731 64 32C64 14.3269 49.6731 0 32 0C14.3269 0 0 14.3269 0 32C0 49.6731 14.3269 64 32 64Z" fill="#FFD15D"/>
<path d="M54.6274 54.6274C62.9194 46.3356 65.7071 34.6258 62.9953 24.0334L56.8674 17.9055L54.575 27.5993L39.9605 12.9849L39.4731 13.7901L35.3512 9.66825L30.2402 15.2279L17.5991 25.8376L20.9018 29.1404L19.7143 30.8535L25.4286 36.5679L24.9692 37.0435L31.2518 43.326L47.8066 59.8309C50.2475 58.4421 52.5455 56.7091 54.6274 54.6274Z" fill="#F9B54C"/>
<path d="M35.136 39.9422V36.4645H28.864V39.9422C28.864 40.2197 28.639 40.4448 28.3615 40.4448H24.0395V52.4461H39.9609V40.4448H35.6387C35.361 40.4448 35.136 40.2197 35.136 39.9422Z" fill="#FED8B2"/>
<path d="M39.9607 40.4448H35.6387C35.3612 40.4448 35.1362 40.2197 35.1362 39.9422V36.4645H31.8567V52.4461H39.961V40.4448H39.9607Z" fill="#EABE96"/>
<path d="M21.5746 31.6836C22.9589 31.6836 24.0811 30.5614 24.0811 29.1771C24.0811 27.7928 22.9589 26.6706 21.5746 26.6706C20.1903 26.6706 19.0681 27.7928 19.0681 29.1771C19.0681 30.5614 20.1903 31.6836 21.5746 31.6836Z" fill="#FED8B2"/>
<path d="M41.8909 31.6836C43.2752 31.6836 44.3974 30.5614 44.3974 29.1771C44.3974 27.7928 43.2752 26.6706 41.8909 26.6706C40.5066 26.6706 39.3844 27.7928 39.3844 29.1771C39.3844 30.5614 40.5066 31.6836 41.8909 31.6836Z" fill="#EABE96"/>
<path d="M32.0153 39.6157H31.4505C26.226 39.6157 21.9907 35.3805 21.9907 30.156V21.519C21.9907 16.2945 26.226 12.0592 31.4505 12.0592H32.0153C37.2398 12.0592 41.475 16.2945 41.475 21.519V30.156C41.475 35.3806 37.2396 39.6157 32.0153 39.6157Z" fill="#F4E3C3"/>
<path d="M32.0153 12.0594H31.8564V39.6157H32.0153C37.2398 39.6157 41.475 35.3805 41.475 30.156V21.519C41.475 16.2946 37.2396 12.0594 32.0153 12.0594Z" fill="#FED8B2"/>
<path d="M27.1408 29.0394C27.6788 29.0394 28.115 28.6032 28.115 28.0651C28.115 27.5271 27.6788 27.0909 27.1408 27.0909C26.6027 27.0909 26.1665 27.5271 26.1665 28.0651C26.1665 28.6032 26.6027 29.0394 27.1408 29.0394Z" fill="#59595B"/>
<path d="M36.3249 29.0394C36.8629 29.0394 37.2991 28.6032 37.2991 28.0651C37.2991 27.5271 36.8629 27.0909 36.3249 27.0909C35.7868 27.0909 35.3506 27.5271 35.3506 28.0651C35.3506 28.6032 35.7868 29.0394 36.3249 29.0394Z" fill="#272525"/>
<path d="M40.6443 40.4447H37.3073C37.3073 43.3759 34.9313 45.9347 32.0003 45.9347C29.0693 45.9347 26.6933 43.3756 26.6933 40.4447H23.3563C19.3371 40.4447 16.079 43.7029 16.079 47.722V59.7641C20.7675 62.4589 26.2038 64 32 64C37.7963 64 43.2325 62.4589 47.9215 59.7641V47.722C47.9215 43.703 44.6634 40.4447 40.6443 40.4447Z" fill="#31BAFD"/>
<path d="M40.6442 40.4447H37.3072C37.3072 43.3759 34.9312 45.9347 32.0002 45.9347C31.9522 45.9347 31.9046 45.9321 31.8567 45.9309V63.9976C31.9047 63.9979 31.9522 64 32.0002 64C37.7965 64 43.2327 62.4589 47.9217 59.7641V47.722C47.9215 43.703 44.6634 40.4447 40.6442 40.4447Z" fill="#2B9ED8"/>
<path d="M32 48.6954C36.4991 48.6954 40.1745 44.901 40.4197 40.4447H37.307C37.307 43.3759 34.931 45.9347 32 45.9347C29.069 45.9347 26.693 43.3759 26.693 40.4447H23.5802C23.8256 44.901 27.501 48.6954 32 48.6954Z" fill="#324A5E"/>
<path d="M37.307 40.4447C37.307 43.3759 34.931 45.9347 32 45.9347C31.952 45.9347 31.9044 45.9321 31.8565 45.9309V48.6915C31.9045 48.6924 31.952 48.6954 32 48.6954C36.4991 48.6954 40.1745 44.901 40.4197 40.4447H37.307Z" fill="#2B3B4E"/>
<path d="M32 37.7972C28.7325 37.7972 26.0741 35.1387 26.0741 31.8714C26.0741 31.1584 26.654 30.5785 27.367 30.5785C28.08 30.5785 28.6599 31.1584 28.6599 31.8714C28.6599 33.7131 30.1581 35.2115 32 35.2115C33.8419 35.2115 35.3401 33.7132 35.3401 31.8714C35.3401 31.1584 35.92 30.5785 36.633 30.5785C37.346 30.5785 37.9259 31.1584 37.9259 31.8714C37.9259 35.1387 35.2675 37.7972 32 37.7972Z" fill="#FD8469"/>
<path d="M36.633 31.3326C36.9306 31.3326 37.1717 31.5737 37.1717 31.8714C37.1717 34.7229 34.8516 37.0431 32 37.0431C29.1484 37.0431 26.8283 34.723 26.8283 31.8714C26.8283 31.5737 27.0694 31.3326 27.367 31.3326C27.6646 31.3326 27.9058 31.5737 27.9058 31.8714C27.9058 34.129 29.7424 35.9656 32 35.9656C34.2576 35.9656 36.0942 34.129 36.0942 31.8714C36.0942 31.5737 36.3354 31.3326 36.633 31.3326ZM36.633 29.8242C35.5042 29.8242 34.5859 30.7426 34.5859 31.8714C34.5859 33.2972 33.4259 34.4572 32 34.4572C30.5741 34.4572 29.4141 33.2972 29.4141 31.8714C29.4141 30.7426 28.4958 29.8242 27.367 29.8242C26.2383 29.8242 25.3199 30.7426 25.3199 31.8714C25.3199 35.5549 28.3166 38.5515 32 38.5515C35.6834 38.5515 38.6801 35.5549 38.6801 31.8714C38.6801 30.7426 37.7617 29.8242 36.633 29.8242Z" fill="white"/>
<path d="M36.633 30.5784C35.92 30.5784 35.3401 31.1583 35.3401 31.8713C35.3401 33.713 33.8419 35.2114 32 35.2114C31.9515 35.2114 31.9044 35.2063 31.8565 35.204V37.7935C31.9044 37.7946 31.952 37.7971 32 37.7971C35.2675 37.7971 37.9259 35.1386 37.9259 31.8713C37.9259 31.1585 37.346 30.5784 36.633 30.5784Z" fill="#FC6F58"/>
<path d="M36.633 29.8242C35.5042 29.8242 34.5859 30.7426 34.5859 31.8714C34.5859 33.2972 33.4259 34.4572 32 34.4572C31.9515 34.4572 31.9044 34.4527 31.8565 34.4499V35.9582C31.9045 35.96 31.9515 35.9656 32 35.9656C34.2576 35.9656 36.0942 34.129 36.0942 31.8714C36.0942 31.5737 36.3354 31.3326 36.633 31.3326C36.9306 31.3326 37.1717 31.5737 37.1717 31.8714C37.1717 34.7229 34.8516 37.0431 32 37.0431C31.952 37.0431 31.9044 37.0408 31.8565 37.0395V38.5479C31.9044 38.549 31.952 38.5515 32 38.5515C35.6834 38.5515 38.6801 35.5549 38.6801 31.8714C38.6801 30.7426 37.7617 29.8242 36.633 29.8242Z" fill="#E6F3FF"/>
<path d="M46.4616 22.734C46.7189 22.2899 46.8685 21.7757 46.8685 21.2256C46.8685 19.5595 45.5179 18.2087 43.8516 18.2087C43.8516 16.676 42.708 15.4115 41.2279 15.2186C40.6635 13.0626 38.7026 11.4719 36.3698 11.4719C36.3311 11.4719 36.2939 11.4766 36.2555 11.4777C35.8131 9.55737 34.0965 8.12387 32.0416 8.12387C29.9644 8.12387 28.2305 9.58812 27.8118 11.5402C27.5531 11.4991 27.2899 11.4718 27.0196 11.4718C24.629 11.4718 22.6299 13.1426 22.1231 15.3799C20.9711 15.8049 20.1481 16.9092 20.1481 18.2087C18.482 18.2087 17.1313 19.5594 17.1313 21.2256C17.1313 21.7757 17.2808 22.2899 17.5381 22.734C17.2434 23.2427 17.0899 23.8435 17.141 24.485C17.2669 26.0674 18.6446 27.2593 20.232 27.2593H20.4835C23.6308 27.2593 26.1819 24.7079 26.1819 21.5609V21.445C26.4545 21.4906 26.7341 21.5159 27.0199 21.5159C27.3309 21.5159 27.6336 21.4837 27.929 21.4296C28.4943 23.1619 30.1208 24.4147 32.042 24.4147C33.9353 24.4147 35.5405 23.197 36.1279 21.5035C36.2086 21.5074 36.2883 21.5158 36.3699 21.5158C36.8735 21.5158 37.3596 21.4408 37.8181 21.3029V21.5609C37.8181 24.7081 40.3695 27.2593 43.5165 27.2593H43.768C45.3553 27.2593 46.7334 26.0676 46.859 24.485C46.9099 23.8435 46.7564 23.2427 46.4616 22.734Z" fill="#FC6F58"/>
<path d="M46.4616 22.734C46.7189 22.2899 46.8685 21.7757 46.8685 21.2256C46.8685 19.5595 45.5179 18.2087 43.8516 18.2087C43.8516 16.676 42.708 15.4115 41.2279 15.2186C40.6635 13.0626 38.7026 11.4719 36.3698 11.4719C36.3311 11.4719 36.2939 11.4766 36.2555 11.4777C35.8131 9.55737 34.0965 8.12387 32.0416 8.12387C31.9791 8.12387 31.9181 8.1295 31.8563 8.132V24.4071C31.9181 24.4098 31.9791 24.4146 32.0416 24.4146C33.9349 24.4146 35.5401 23.1969 36.1275 21.5034C36.2083 21.5072 36.2879 21.5156 36.3695 21.5156C36.8731 21.5156 37.3593 21.4406 37.8178 21.3027V21.5607C37.8178 24.708 40.3691 27.2591 43.5161 27.2591H43.7676C45.3549 27.2591 46.733 26.0675 46.8586 24.4849C46.9099 23.8435 46.7564 23.2427 46.4616 22.734Z" fill="#F1543F"/>
<path d="M32 32.2155C33.1901 32.2155 34.1549 31.2507 34.1549 30.0606C34.1549 28.8705 33.1901 27.9057 32 27.9057C30.8099 27.9057 29.8451 28.8705 29.8451 30.0606C29.8451 31.2507 30.8099 32.2155 32 32.2155Z" fill="#FC6F58"/>
<path d="M32 27.9057C31.9515 27.9057 31.9041 27.9099 31.8565 27.9131V32.2085C31.9041 32.2117 31.9515 32.2159 32 32.2159C33.1901 32.2159 34.1549 31.2511 34.1549 30.061C34.1549 28.8706 33.1901 27.9057 32 27.9057Z" fill="#F1543F"/>
<path d="M34.6936 49.8855L35.426 51.3698L37.064 51.6077L35.8788 52.7629L36.1585 54.3941L34.6936 53.624L33.2287 54.3941L33.5084 52.7629L32.3233 51.6077L33.9611 51.3698L34.6936 49.8855Z" fill="#84DBFF"/>
<path d="M38.2131 56.2024L38.9459 57.6864L40.5835 57.9245L39.3984 59.0797L39.6782 60.711L38.2131 59.9409L36.7482 60.711L37.028 59.0797L35.8427 57.9245L37.4808 57.6864L38.2131 56.2024Z" fill="#84DBFF"/>
<path d="M22.5185 46.9004L23.251 48.3844L24.8889 48.6225L23.7038 49.7777L23.9834 51.409L22.5185 50.6389L21.0536 51.409L21.3334 49.7777L20.1481 48.6225L21.7861 48.3844L22.5185 46.9004Z" fill="#84DBFF"/>
<path d="M22.5185 57.567L23.251 59.0511L24.8889 59.2892L23.7038 60.4445L23.9834 62.0757L22.5185 61.3055L21.0536 62.0757L21.3334 60.4445L20.1481 59.2892L21.7861 59.0511L22.5185 57.567Z" fill="#84DBFF"/>
<path d="M43.8519 43.3448L44.5843 44.8289L46.2223 45.067L45.037 46.2223L45.3167 47.8535L43.8519 47.0834L42.387 47.8535L42.6666 46.2223L41.4815 45.067L43.1194 44.8289L43.8519 43.3448Z" fill="#84DBFF"/>
<path d="M53.9669 30.2654H53.3204V41.4922H53.9669V30.2654Z" fill="#324A5E"/>
<path d="M53.6436 31.332C56.8042 31.332 59.3664 28.0402 59.3664 23.9795C59.3664 19.9188 56.8042 16.627 53.6436 16.627C50.483 16.627 47.9209 19.9188 47.9209 23.9795C47.9209 28.0402 50.483 31.332 53.6436 31.332Z" fill="#C1321F"/>
</g>
<defs>
<clipPath id="clip0_0_1">
<rect width="64" height="64" fill="white"/>
</clipPath>
</defs>
</svg>
